<?xml version="1.0" encoding="utf-8"?>
<!-- Generator: Adobe Illustrator 19.0.0, SVG Export Plug-In . SVG Version: 6.00 Build 0)  -->
<svg version="1.1" id="Layer_1" xmlns="http://www.w3.org/2000/svg" xmlns:xlink="http://www.w3.org/1999/xlink" x="0px" y="0px"
	 viewBox="0 -180 1080 1080" style="enable-background:new 0 -180 1080 1080;" xml:space="preserve">
<style type="text/css">
	.st0{stroke:#000000;stroke-miterlimit:10;}
	.st1{fill:#FFFFFF;}
	.st2{fill:none;stroke:#FFFFFF;stroke-miterlimit:10;}
	.st3{font-family:'Pristina-Regular';}
	.st4{font-size:144.8271px;}
</style>
<rect id="XMLID_1_" y="-180" class="st0" width="1080" height="1080"/>
<path id="XMLID_44_" class="st1" d="M358.3,618.2c0,0,52.6-51.8,85.5-135.1c18.1-45.7,24.9-105,26.3-161c0,0-0.4-3.9-1.3-10.8
	c-0.2-1.8-0.5-3.7-0.8-5.9c-5.8-40.5-24.6-146.5-71.5-222.3c-23.6-45.5,46.9,16.5,77,79.6c30.1,46,55.8,180.4,42.6,240.3
	c-2.3,11.5-8,50.1-15.5,79.1c-16.7,64.1-45.4,133.6-45.4,133.6l-44.4,2.6c0,0,25.7-45.7,25.2-50.7s4.9-23-4.9-14.5
	c-9.9,8.5-37.5,65.2-37.5,65.2L358.3,618.2L358.3,618.2z"/>
<path id="XMLID_43_" class="st1" d="M467.9,309.6c0,0-108.5-27.5-173.6-100.5s72.8,138.6,173.9,143.7"/>
<path id="XMLID_42_" class="st1" d="M327.9,384.8c0,0-117.8,2.7-91.8,151.2c152-44,105.6-140.1,105.6-140.1S265.5,526.7,261.8,512
	S327.9,384.8,327.9,384.8z"/>
<path id="XMLID_41_" class="st1" d="M184.2,418.4c0,0-60.4-16.2-68.6,63.4c83.8,0.2,74.1-55.7,74.1-55.7s-57.8,55.3-57.5,47.3
	C132.3,465.3,184.2,418.4,184.2,418.4z"/>
<path id="XMLID_40_" class="st1" d="M221.5,282c0,0-100.4-58.5-168,60.7c131.7,59.6,171.3-44.8,171.3-44.8S96,344,101.8,331.5
	C107.7,319.1,221.5,282,221.5,282z"/>
<path id="XMLID_39_" class="st1" d="M92.7,222.3c0,0-29.9-42-78.4-6.6c42.2,48.2,76.9,13.6,76.9,13.6s-60-5.3-55.4-9.2
	S92.7,222.3,92.7,222.3z"/>
<path id="XMLID_38_" class="st1" d="M230.1,144.5c0,0-29.3-113.7-160.5-79C120,202.5,221.2,158,221.2,158S98.5,97.1,111.4,92.6
	C124.2,88.2,230.1,144.5,230.1,144.5z"/>
<path id="XMLID_37_" class="st1" d="M199.8,20.8c0,0,8.2-60.1-61.2-69.8c-2.6,75.5,54.3,74.5,54.3,74.5s-46.7-53.6-39.7-53.2
	C160.2-27.2,199.8,20.8,199.8,20.8z"/>
<path id="XMLID_36_" class="st1" d="M351.3,66.3c0,0,59.3-110.7-68.4-181.1C223.3,29.9,334.6,70.3,334.6,70.3s-52-138.9-38.7-132.8
	C309.2-56.4,351.3,66.3,351.3,66.3z"/>
<polygon id="XMLID_35_" class="st1" points="466.3,309.2 486.1,314 504.4,339.5 501.2,346.5 475.9,355.1 464.2,351.8 "/>
<path id="XMLID_34_" class="st1" d="M339.5,622.3c0,0-123.6-17.3-279.1,66.1C53.5,684.6,201,569,358.3,578.7
	C348.3,597.5,339.5,622.3,339.5,622.3z"/>
<path id="XMLID_33_" class="st1" d="M489,585.5l-17.8,47.8c0,0,142.1,0.3,233.2,79.1C668.8,621.5,489,585.5,489,585.5z"/>
<path id="XMLID_32_" class="st1" d="M620,361.1c0,0,90.9,11.3,77.6,166.7c91.5,32.5,88.5,79.7,85.6,171.8c9-0.9,17-1.4,24-1.7
	c4.3-0.2,5.3,0.2,8.3-0.3c0.8-23.6-2.1-58.5-0.9-58.1c1.2,0.4,6.5,36,12.7,58.1c3.6,2.2,22.2,1.9,22.2,1.9S828.1,525,745.8,522.8
	C734.7,314.5,620,361.1,620,361.1z"/>
<path id="XMLID_31_" class="st1" d="M834.7,368.9c0,0,90.9,11.3,77.6,166.7c91.5,32.5,88.5,79.7,85.6,171.8c9-0.9,17-1.4,24-1.7
	c4.3-0.2,5.3,0.2,8.3-0.3c0.8-23.6-2.1-58.5-0.9-58.1s6.5,36,12.7,58.1c3.6,2.2,22.2,1.9,22.2,1.9s-21.4-174.6-103.6-176.8
	C949.4,322.3,834.7,368.9,834.7,368.9z"/>
<g id="XMLID_28_">
	<path id="XMLID_15_" class="st1" d="M519.9,118.1c7.3,3.5,14.3,7.7,21.1,12.2s13.4,9.3,19.7,14.4c6.4,5.1,12.5,10.5,18.4,16.2
		s11.5,11.7,16.8,18.1s10.2,13,14.7,20s8.5,14.3,12.1,21.9c3.5,7.6,6.4,15.6,8.5,23.7c2.2,8.2,3.6,16.6,4.1,25.1
		c0.6,8.5,0.2,17-1,25.4s-3.4,16.6-6.2,24.6c-2.9,7.9-6.5,15.5-10.7,22.7c-2.1,3.6-4.3,7.1-6.7,10.5c-2.3,3.4-4.8,6.7-7.4,10
		c-5.2,6.4-10.7,12.5-16.5,18.3c-5.8,5.7-11.9,11.1-18.3,16.3l-4.8,3.8l-4.8,3.7c-3.3,2.4-6.6,4.7-9.9,7
		c-6.7,4.6-13.5,8.9-20.5,12.9l-0.4-0.9l0,0c6.1-1.5,12.2-3.1,18.2-4.9c6-1.8,11.9-3.9,17.8-6.1c11.7-4.5,22.9-10.1,33.4-16.6
		s20.3-14.1,29-22.7c8.8-8.5,16.4-18.1,22.9-28.4c6.5-10.3,11.6-21.4,15.6-32.8c3.9-11.5,6.6-23.4,8.1-35.4s1.8-24.2,1.1-36.4
		c-0.7-12.1-2.6-24.2-5.3-36c-2.8-11.8-6.6-23.4-11.3-34.6s-10.3-21.9-16.9-32c-6.6-10.1-14.1-19.6-22.5-28
		c-8.4-8.5-17.8-15.9-27.8-22c-5.1-3-10.3-5.8-15.6-8.1l-2-0.8l-0.9-0.4l-1.1-0.4l-4.4-1.7l-1.1-0.4l-1.1-0.4l-2.1-0.8
		c-1.4-0.5-2.8-1.1-4.3-1.5c-5.8-2-11.6-3.8-17.5-5.5c-5.9-1.6-11.8-3.1-17.8-4.3c-12-2.5-24.2-4.2-36.6-4.9
		c-3.1-0.2-6.2-0.3-9.3-0.4c-3.1,0-6.2-0.1-9.3,0c-6.2,0.2-12.5,0.5-18.7,1.4l-0.3-1c5.9-2.6,12.1-4.4,18.4-5.8
		c6.3-1.4,12.7-2.4,19.1-3.1c12.9-1.3,25.9-1.2,38.9,0.2c6.5,0.7,12.9,1.7,19.3,2.9c3.2,0.7,6.4,1.3,9.5,2.1
		c1.6,0.4,3.2,0.7,4.7,1.2l4.7,1.3c1.6,0.4,3.2,1,4.7,1.4l2.4,0.7l1.2,0.4l1.1,0.4l4.5,1.5l1.1,0.4l1.3,0.5l2.4,0.9
		c3.1,1.3,6.2,2.6,9.2,4.1s6,3.1,8.9,4.8c11.6,6.8,22.1,15.3,31.4,24.8c9.3,9.5,17.6,19.9,24.7,31c7.1,11.1,13.1,22.9,18,35
		c4.9,12.2,8.7,24.7,11.5,37.5s4.3,25.8,4.8,38.9s-0.3,26.2-2.4,39.2c-2,12.9-5.4,25.7-10.2,37.9c-4.7,12.2-10.9,23.9-18.4,34.6
		c-3.7,5.4-7.8,10.5-12.1,15.4c-4.4,4.9-9,9.5-13.9,13.7c-9.8,8.5-20.6,15.8-31.9,21.9c-11.3,6.1-23.3,10.8-35.5,14.5
		c-6.1,1.9-12.3,3.4-18.5,4.7s-12.5,2.4-18.7,3.2l0,0l-2.3,0.6l1.9-1.5c6.3-5,12.5-10.1,18.6-15.3c3-2.6,6-5.3,9-8l4.4-4l4.3-4.1
		c5.7-5.6,11.1-11.3,16.3-17.3s10.1-12.1,14.6-18.5s8.6-13,12.1-19.9c3.6-6.9,6.5-14,8.9-21.2c2.3-7.3,4-14.7,4.9-22.2
		s1-15.1,0.4-22.6s-2-15-4-22.4c-2-7.3-4.7-14.5-7.9-21.5c-3.1-7-6.9-13.8-10.9-20.4c-4.1-6.6-8.4-13.1-13.1-19.3
		c-4.7-6.3-9.6-12.4-14.8-18.3s-10.6-11.7-16.1-17.4c-5.6-5.7-11.3-11.2-17.2-16.6s-11.9-10.7-18.1-15.9L519.9,118.1z"/>
</g>
<path id="XMLID_27_" class="st2" d="M448.3,58.9"/>
<path id="XMLID_26_" class="st2" d="M528.2,424.3"/>
<g id="XMLID_23_">
	<path id="XMLID_21_" class="st1" d="M511.4-0.2c0,0,0-0.7-0.1-1.9s-0.2-3-0.3-5.3c-0.1-2.3-0.2-5-0.3-8.2
		c-0.1-3.2-0.1-6.7-0.2-10.6c0-3.9,0-8.1,0-12.5c0.1-4.4,0.1-9.1,0.3-13.9c0.1-4.8,0.4-9.8,0.6-14.9c0.3-5.1,0.5-10.2,0.9-15.3
		c0.3-5.1,0.7-10.3,1.1-15.3c0.2-2.5,0.4-5,0.6-7.5c0.2-2.5,0.5-4.9,0.7-7.3c0.4-4.8,0.9-9.4,1.5-13.8c0.6-4.4,1.4-8.5,2.3-12.3
		c0.9-3.8,1.9-7.2,2.9-10.3c1-3,2-5.7,2.9-7.9c1.8-4.3,3.3-6.8,3.3-6.8l1,0.1c0,0,1,2.7,1.9,7.3c0.5,2.3,0.9,5.1,1.3,8.3
		c0.4,3.2,0.7,6.8,0.8,10.7s0.1,8.1-0.1,12.5c-0.2,4.4-0.7,9-1.2,13.8c-0.3,2.4-0.5,4.8-0.8,7.3s-0.6,5-0.9,7.5
		c-0.6,5-1.2,10.1-1.9,15.2s-1.4,10.2-2.2,15.2s-1.5,9.9-2.4,14.7c-0.8,4.8-1.6,9.4-2.4,13.7c-0.8,4.4-1.6,8.5-2.4,12.3
		c-0.8,3.8-1.5,7.3-2.2,10.3c-0.7,3.1-1.3,5.8-1.9,8c-0.6,2.2-1,3.9-1.3,5.1c-0.3,1.2-0.5,1.8-0.5,1.8H511.4z"/>
</g>
<g id="XMLID_20_">
	<path id="XMLID_12_" class="st1" d="M662.5,44.6c0,0,0.5-0.7,1.5-2.1c1-1.4,2.4-3.3,4.3-5.8c1.9-2.5,4.2-5.4,7-8.8
		c1.4-1.7,2.9-3.4,4.5-5.3c1.6-1.8,3.3-3.8,5.1-5.7c1.8-2,3.7-4,5.6-6.1c2-2.1,4-4.2,6.2-6.4c2.1-2.2,4.4-4.4,6.7-6.6
		c2.3-2.2,4.7-4.5,7.2-6.8c4.9-4.5,10.1-9.1,15.6-13.6c5.4-4.5,11.1-8.9,16.8-13.2c5.8-4.2,11.7-8.3,17.7-12.2c3-1.9,6-3.8,9-5.5
		c1.5-0.9,3-1.8,4.5-2.6c1.5-0.8,3-1.7,4.5-2.5s3-1.6,4.4-2.4c1.5-0.8,3-1.5,4.4-2.2c1.5-0.7,2.9-1.5,4.3-2.2c1.5-0.7,2.9-1.3,4.3-2
		c1.4-0.7,2.8-1.3,4.2-1.9s2.8-1.1,4.2-1.7c2.7-1.1,5.4-2.2,8-3.1s5-1.9,7.4-2.6s4.7-1.5,6.8-2c2.2-0.6,4.3-0.7,6.3-0.8
		c2-0.1,3.8,0,5.5,0.2c3.4,0.5,6.1,1.5,8,2.3c0.9,0.4,1.7,0.8,2.1,1.1c0.2,0.1,0.4,0.2,0.6,0.3c0.1,0.1,0.2,0.1,0.2,0.1l0.2,1
		c0,0,0,0.1-0.1,0.2s-0.2,0.3-0.4,0.5c-0.3,0.5-0.9,1.1-1.5,1.9c-1.4,1.5-3.4,3.4-6,5.2c-1.3,1-2.8,1.9-4.4,2.8
		c-1.6,0.9-3.4,1.6-5.3,2.4c-1.9,0.7-4,1.3-6.2,2s-4.5,1.6-6.9,2.4s-4.9,1.8-7.4,2.8c-1.3,0.5-2.6,1-3.9,1.6c-1.3,0.6-2.6,1.1-4,1.7
		c-1.3,0.6-2.7,1.2-4.1,1.8c-1.4,0.6-2.7,1.3-4.1,1.9c-1.4,0.7-2.8,1.3-4.2,2s-2.8,1.4-4.3,2.2c-1.4,0.7-2.9,1.5-4.3,2.2
		c-1.4,0.8-2.9,1.6-4.3,2.3c-1.5,0.8-2.9,1.6-4.4,2.4c-1.5,0.8-2.9,1.7-4.4,2.5c-5.9,3.3-11.8,7-17.6,10.7c-2.9,1.9-5.8,3.8-8.7,5.7
		c-1.4,1-2.9,1.9-4.3,2.9c-1.4,0.9-2.8,1.9-4.2,2.9c-2.8,2-5.6,3.9-8.3,5.9c-2.7,1.9-5.4,3.9-8,5.9c-2.6,1.9-5.2,3.9-7.7,5.8
		c-2.5,1.9-4.9,3.8-7.3,5.7c-4.7,3.7-9.1,7.3-13.2,10.7c-4,3.4-7.7,6.5-11,9.3s-6.1,5.3-8.4,7.3c-2.3,2-4.1,3.7-5.3,4.8
		s-1.9,1.7-1.9,1.7L662.5,44.6z"/>
</g>
<g id="XMLID_17_">
	<path id="XMLID_18_" class="st1" d="M744.2,178.1c0,0,0.7-0.3,2-1c1.3-0.6,3.3-1.5,5.8-2.5s5.6-2.2,9.1-3.5c1.8-0.6,3.7-1.3,5.7-2
		s4.1-1.4,6.3-2.1s4.5-1.4,6.9-2.1s4.9-1.4,7.5-2.1s5.2-1.4,8-2c2.7-0.7,5.5-1.3,8.4-1.9s5.8-1.2,8.7-1.8c3-0.5,5.9-1.1,9-1.6
		c3-0.5,6.1-1,9.2-1.4c3.1-0.4,6.2-0.8,9.3-1.2c6.2-0.7,12.4-1.2,18.6-1.5c3.1-0.1,6.1-0.3,9.1-0.4c3,0,6-0.1,8.9-0.1
		s5.8,0.1,8.7,0.1c2.8,0.1,5.6,0.3,8.3,0.5c5.4,0.5,10.4,1.2,15.1,2.1c2.3,0.5,4.5,0.9,6.6,1.5c1,0.3,2.1,0.6,3,0.8
		c1,0.3,1.9,0.6,2.9,0.8c3.7,1.2,6.8,2.4,9.4,3.5c5.1,2.3,7.9,4,7.9,4l-0.2,1c0,0-3.3,0.6-8.7,0.9c-2.7,0.2-6,0.4-9.7,0.5
		c-3.7,0.3-7.9,0.1-12.4,0.3c-4.5,0-9.4,0-14.6-0.2c-2.6,0-5.2-0.1-7.9-0.2s-5.5-0.1-8.3-0.2c-2.8,0-5.7,0-8.6,0
		c-2.9,0-5.8,0.1-8.8,0.1c-5.9,0.2-12,0.3-18,0.7c-6,0.3-12.1,0.7-18,1.2s-11.8,1.1-17.4,1.7c-5.7,0.6-11.1,1.2-16.3,1.9
		c-5.2,0.6-10.1,1.3-14.6,2c-4.5,0.6-8.7,1.3-12.4,1.9s-6.9,1.1-9.6,1.6c-2.7,0.4-4.7,0.8-6.2,1.1c-1.4,0.3-2.2,0.4-2.2,0.4
		L744.2,178.1z"/>
</g>
<g id="XMLID_4_">
	<path id="XMLID_19_" class="st1" d="M620.2,360.6c0,0,1.2,0.2,3.3,0.9c2.1,0.6,5.3,1.6,9.1,3.1c3.9,1.5,8.5,3.4,13.6,5.9
		c5.2,2.4,11,5.2,17.4,8.1c25.6,11.9,59.6,27.7,93.7,43.5c8.5,4,17,8,25.3,12c4.2,2,8.3,4,12.4,5.9c4.1,2,8.1,3.9,12.1,5.9
		c7.9,3.9,15.5,7.7,22.8,11.2c7.2,3.6,14,7,20.3,10.3c6.3,3.2,12,6.2,17.1,8.8c2.5,1.3,4.9,2.5,7.1,3.7c1.1,0.6,2.2,1.1,3.2,1.6
		s2,1,2.8,1.6c3.4,2.4,5.3,5.7,6.4,8.4c1.1,2.7,1.3,4.9,1.3,4.9l-0.5,0.9c0,0-1.9,1.1-4.7,1.8s-6.7,1.1-10.6-0.2c-1-0.3-2-0.8-3-1.3
		s-2.1-1-3.2-1.6c-2.2-1.1-4.6-2.3-7.2-3.6c-5.1-2.6-10.9-5.5-17.2-8.6c-6.3-3.2-13.1-6.6-20.3-10.3s-14.7-7.6-22.5-11.7
		c-3.9-2.1-7.8-4.1-11.9-6.3c-4-2.1-8-4.3-12.1-6.5c-8.1-4.4-16.4-8.8-24.6-13.3c-32.9-18.1-65.8-36.2-90.5-49.8
		c-6.2-3.4-11.8-6.5-16.9-9.2c-5-2.7-9.3-5.3-12.8-7.5s-6.1-4.2-7.9-5.5c-1.8-1.4-2.7-2.2-2.7-2.2L620.2,360.6z"/>
</g>
<text id="XMLID_2_" transform="matrix(0.9859 0 0 1 69.5869 823.833)" class="st1 st3 st4">Arana Rathnaella</text>
</svg>
